<?xml version="1.0" encoding="utf-8"?>
<!-- Generator: Adobe Illustrator 18.0.0, SVG Export Plug-In . SVG Version: 6.00 Build 0)  -->
<!DOCTYPE svg PUBLIC "-//W3C//DTD SVG 1.1//EN" "http://www.w3.org/Graphics/SVG/1.1/DTD/svg11.dtd">
<svg version="1.1" id="Layer_1" xmlns="http://www.w3.org/2000/svg" xmlns:xlink="http://www.w3.org/1999/xlink" x="0px" y="0px"
	 width="125.1px" height="126.1px" viewBox="0 0 125.1 126.1" enable-background="new 0 0 125.1 126.1" xml:space="preserve">
<g>
	<g>
		<path fill="#673529" d="M120.3,85.5H13.5l13.5-21h-8.7L0,91.5h39.1l23.5,34.5L86,91.5h39.1L120.3,85.5z M62.6,113.3L47.8,91.5
			h29.6L62.6,113.3z"/>
		<path fill="#673529" d="M4.8,41.1l106.8,0.3L96.7,63.5h8.7l19.7-29H86L62.6,0L39.1,34.5H0L4.8,41.1z M62.6,12.8l14.8,21.8H47.8
			L62.6,12.8z"/>
	</g>
	<g>
		<path fill="#673529" d="M22.8,58.9c-0.1,0.3-0.2,0.5-0.3,0.5c-0.1,0.1-0.2,0.1-0.4,0.1h-1.7c-0.4,0-0.5-0.2-0.4-0.6l2.3-8.1
			c0.2-0.8-0.1-1.2-0.9-1.3c-0.6-0.1-1.3-0.1-2.3-0.1c-1,0-2,0-3.1,0.1c-0.4,0-0.5-0.1-0.4-0.5l0.4-1.3c0.1-0.4,0.3-0.6,0.7-0.6
			c1.7-0.2,3.2-0.3,4.5-0.3c1.7,0,2.9,0.3,3.5,0.9c0.6,0.6,0.7,1.6,0.3,3L22.8,58.9z M15.8,58.9c-0.1,0.3-0.2,0.5-0.3,0.5
			c-0.1,0.1-0.2,0.1-0.4,0.1h-1.7c-0.3,0-0.4-0.2-0.3-0.6l1.1-3.8c0.2-0.8,0.7-1.7,1.3-2.4c0.2-0.2,0.4-0.3,0.6-0.3h1.1
			c0.3,0,0.4,0.2,0.3,0.5L15.8,58.9z"/>
		<path fill="#673529" d="M28,58.9c-0.1,0.3-0.2,0.5-0.3,0.5c-0.1,0.1-0.2,0.1-0.4,0.1h-1.7c-0.3,0-0.4-0.2-0.3-0.6l3.2-11.4
			c0.1-0.4,0.3-0.6,0.7-0.6H31c0.2,0,0.4,0,0.4,0.1c0,0.1,0,0.3-0.1,0.5L28,58.9z"/>
		<path fill="#673529" d="M41.8,53.8l-3.9,5.1c-0.3,0.4-0.6,0.7-0.8,0.7h-2c-0.2,0-0.3-0.1-0.2-0.3c0-0.2,0.2-0.4,0.3-0.6l4.8-6.4
			c0.3-0.4,0.5-0.7,0.6-1.1c0.1-0.5,0.1-0.8-0.1-1.2c-0.2-0.3-0.5-0.5-1-0.5h-6.1c-0.3,0-0.5-0.2-0.3-0.6l0.4-1.5
			c0.1-0.4,0.3-0.5,0.7-0.5h6c1.3,0,2.3,0.4,2.8,1.1c0.6,0.8,0.7,1.8,0.3,3C43,51.9,42.5,52.8,41.8,53.8z M31.7,64.6
			c-0.1,0.2-0.1,0.4-0.2,0.5c-0.1,0.1-0.2,0.1-0.4,0.1h-1.7c-0.3,0-0.5-0.2-0.3-0.6l2.7-9.4c0.1-0.5,0.6-1.4,1.3-2.5
			c0.2-0.3,0.4-0.4,0.7-0.4h1.1c0.3,0,0.4,0.2,0.3,0.5L31.7,64.6z"/>
		<path fill="#673529" d="M47.2,58.9c-0.1,0.3-0.2,0.5-0.3,0.5c-0.1,0.1-0.3,0.1-0.5,0.1h-3.8c-0.3,0-0.4-0.2-0.3-0.5l0.4-1.5
			c0.1-0.2,0.2-0.4,0.3-0.5c0.1-0.1,0.2-0.1,0.4-0.1H45l2.1-7.5h-0.7c-0.3,0-0.5-0.1-0.4-0.5l0.4-1.2c0.1-0.2,0.1-0.4,0.2-0.5
			c0-0.1,0.2-0.1,0.4-0.2c1.1-0.2,3.1-0.2,5.9-0.2c1.7,0,2.8,0.3,3.4,1c0.6,0.7,0.6,1.8,0.1,3.4l-2.2,7.7c-0.1,0.4-0.3,0.6-0.6,0.6
			h-1.8c-0.3,0-0.4-0.2-0.3-0.6l2.2-7.7c0.2-0.7,0.2-1.2-0.1-1.4c-0.3-0.3-0.8-0.4-1.5-0.4c-0.6,0-1.3,0-2.2,0L47.2,58.9z"/>
		<path fill="#673529" d="M65.5,58.9c-0.1,0.3-0.2,0.5-0.3,0.5c-0.1,0.1-0.3,0.1-0.5,0.1H61c-0.3,0-0.4-0.2-0.3-0.5l0.4-1.5
			c0.1-0.2,0.2-0.4,0.3-0.5c0.1-0.1,0.2-0.1,0.4-0.1h1.6l2.1-7.5h-0.7c-0.3,0-0.5-0.1-0.4-0.5l0.4-1.2c0.1-0.2,0.1-0.4,0.2-0.5
			c0-0.1,0.2-0.1,0.4-0.2c1.1-0.2,3.1-0.2,5.9-0.2c1.7,0,2.8,0.3,3.4,1c0.6,0.7,0.6,1.8,0.1,3.4l-2.2,7.7c-0.1,0.4-0.3,0.6-0.6,0.6
			h-1.8c-0.3,0-0.4-0.2-0.3-0.6l2.2-7.7c0.2-0.7,0.2-1.2-0.1-1.4c-0.3-0.3-0.8-0.4-1.5-0.4c-0.6,0-1.3,0-2.2,0L65.5,58.9z"/>
		<path fill="#673529" d="M79.1,58.9c-0.1,0.3-0.2,0.5-0.3,0.5c-0.1,0.1-0.3,0.1-0.5,0.1h-3.8c-0.3,0-0.4-0.2-0.3-0.5l0.4-1.5
			c0.1-0.2,0.2-0.4,0.3-0.5C75,57,75.1,57,75.3,57h1.6l2.1-7.5h-0.7c-0.3,0-0.5-0.1-0.4-0.5l0.4-1.2c0.1-0.2,0.1-0.4,0.2-0.5
			c0-0.1,0.2-0.1,0.4-0.2c1.1-0.2,3.1-0.2,5.9-0.2c1.7,0,2.8,0.3,3.4,1c0.6,0.7,0.6,1.8,0.1,3.4l-2.2,7.7c-0.1,0.4-0.3,0.6-0.6,0.6
			h-1.8c-0.3,0-0.4-0.2-0.3-0.6l2.2-7.7c0.2-0.7,0.2-1.2-0.1-1.4c-0.3-0.3-0.8-0.4-1.5-0.4c-0.6,0-1.3,0-2.2,0L79.1,58.9z"/>
		<path fill="#673529" d="M100.9,47.9l-6.7,11c-0.3,0.4-0.5,0.7-0.8,0.7h-2c-0.2,0-0.2-0.1-0.2-0.3c0-0.1,0.1-0.3,0.3-0.6l5.6-9.1
			h-5.9c-0.3,0-0.5-0.2-0.3-0.6l1.6-5.5c0.1-0.4,0.3-0.5,0.7-0.5h1.7c0.3,0,0.4,0.2,0.3,0.6l-1,3.4h6.5c0.4,0,0.5,0.2,0.4,0.5
			C101,47.5,101,47.7,100.9,47.9z"/>
	</g>
	<g>
		<path fill="#673529" d="M29.6,79.5l3-12h1.3l-2.7,10.7h4.8l-0.3,1.3H29.6z"/>
		<path fill="#673529" d="M44.3,79.5l-0.4-3.8h-4.3l-2.3,3.8H36l7.3-12h1.1l1.2,12H44.3z M43.8,74.5l-0.3-3.7c0-0.5-0.1-1-0.1-1.7
			c-0.2,0.5-0.5,1.1-0.9,1.7l-2.2,3.7H43.8z"/>
		<path fill="#673529" d="M50.4,79.5h-1.3l2.7-10.7h-3.4l0.3-1.2h8.1l-0.3,1.2h-3.4L50.4,79.5z"/>
		<path fill="#673529" d="M61.5,79.5h-6l3-12h6l-0.3,1.2h-4.8l-1,3.9H63l-0.3,1.2h-4.5L57,78.3h4.8L61.5,79.5z"/>
		<path fill="#673529" d="M67.2,79.5H66l2.7-10.7h-3.4l0.3-1.2h8.1l-0.3,1.2H70L67.2,79.5z"/>
		<path fill="#673529" d="M79.6,79.5h-1.3L81,68.8h-3.4l0.3-1.2H86l-0.3,1.2h-3.4L79.6,79.5z"/>
		<path fill="#673529" d="M84.6,79.5l3-12h1.3l-3,12H84.6z"/>
		<path fill="#673529" d="M96.7,79.5h-1.5l-2.5-5.8l-1.4,1.1l-1.2,4.7h-1.3l3-12h1.3l-1.5,5.9l6.4-5.9h1.5l-5.7,5.2L96.7,79.5z"/>
		<path fill="#673529" d="M107.4,67.6h1.4l-6.9,12h-1.2l-0.8-12h1.3l0.5,7.7c0.1,0.9,0.1,1.8,0,2.6c0.4-0.9,0.9-1.8,1.4-2.6
			L107.4,67.6z"/>
		<path fill="#673529" d="M114,79.5l-0.4-3.8h-4.3l-2.3,3.8h-1.3l7.3-12h1.1l1.2,12H114z M113.6,74.5l-0.3-3.7c0-0.5-0.1-1-0.1-1.7
			c-0.2,0.5-0.5,1.1-0.9,1.7l-2.2,3.7H113.6z"/>
	</g>
</g>
</svg>
